<?xml version="1.0" standalone="no"?>
<!DOCTYPE svg PUBLIC "-//W3C//DTD SVG 20010904//EN"
 "http://www.w3.org/TR/2001/REC-SVG-20010904/DTD/svg10.dtd">
<svg version="1.0" xmlns="http://www.w3.org/2000/svg"
 width="512.000000pt" height="512.000000pt" viewBox="0 0 512.000000 512.000000"
 preserveAspectRatio="xMidYMid meet">
<metadata>
Created by potrace 1.14, written by Peter Selinger 2001-2017
</metadata>
<g transform="translate(0.000000,512.000000) scale(0.100000,-0.100000)"
fill="#000000" stroke="none">
<path d="M2462 5099 c-33 -35 -9 -89 39 -89 38 0 63 37 50 72 -16 42 -59 50
-89 17z"/>
<path d="M2962 4894 c-15 -11 -22 -25 -22 -50 0 -32 -2 -34 -34 -34 -36 0 -66
-28 -66 -61 0 -23 30 -47 64 -51 24 -2 30 -8 33 -33 4 -33 35 -65 64 -65 23 0
49 37 49 71 0 22 4 26 32 27 33 1 68 31 68 58 0 24 -39 54 -70 54 -27 0 -30 3
-30 30 0 31 -30 70 -53 70 -7 0 -23 -7 -35 -16z"/>
<path d="M1379 4736 c-2 -2 -25 -7 -52 -10 -70 -10 -194 -56 -282 -107 -226
-129 -390 -378 -420 -639 -4 -30 -7 -143 -8 -250 l-1 -195 -28 -30 c-36 -38
-76 -120 -86 -176 -40 -212 110 -421 318 -445 l59 -6 11 -57 c30 -152 106
-296 214 -410 61 -63 174 -151 195 -151 7 0 11 -38 11 -120 l0 -119 -167 -82
c-145 -71 -189 -88 -337 -126 -94 -24 -180 -45 -191 -47 -87 -18 -279 -73
-320 -92 -62 -30 -82 -47 -128 -107 -53 -69 -69 -132 -82 -322 -3 -44 -8 -102
-10 -130 -8 -86 -14 -157 -20 -235 -3 -41 -8 -97 -10 -125 -2 -27 -7 -84 -10
-125 -3 -41 -8 -95 -10 -120 -13 -131 -19 -223 -19 -297 -1 -75 1 -85 29 -124
17 -24 46 -52 65 -64 35 -20 43 -20 1605 -23 1695 -3 1610 -5 1672 47 29 24
62 89 64 126 2 29 -9 201 -16 256 -2 14 -6 71 -10 125 -4 55 -8 111 -10 126
l-3 27 751 1 c840 0 811 -3 884 70 74 72 78 89 78 315 0 226 -6 249 -81 315
-78 68 -27 64 -889 67 -429 1 -789 2 -801 2 -14 1 -26 13 -37 40 -20 44 -82
112 -129 141 -32 19 -26 19 832 20 476 0 878 3 894 6 71 13 141 68 179 139 19
36 22 60 25 220 3 164 2 185 -18 237 -14 37 -35 70 -64 96 -84 77 -1 73 -1307
70 l-1166 -3 -48 -30 c-63 -39 -105 -92 -120 -152 -8 -29 -12 -108 -11 -201 1
-96 -3 -152 -9 -152 -5 1 -59 26 -120 58 l-110 57 0 118 -1 118 61 43 c186
134 315 345 344 567 1 4 27 9 59 13 178 20 321 177 327 358 2 79 -24 168 -67
228 l-31 45 -2 330 c-2 285 -4 337 -19 380 -31 86 -84 171 -141 223 -54 49
-153 106 -205 118 -112 25 -226 19 -303 -14 l-41 -18 -39 43 c-46 50 -120 100
-197 133 -51 22 -70 24 -276 27 -121 2 -222 2 -225 -1z"/>
<path d="M3660 4216 c-158 -34 -287 -149 -341 -302 -23 -65 -27 -103 -28 -241
-1 -90 -4 -113 -15 -113 -24 0 -83 -68 -93 -107 -5 -21 -8 -186 -8 -368 1
-360 2 -368 61 -414 51 -40 81 -42 544 -39 444 3 445 3 482 26 22 13 45 40 58
66 20 42 21 55 18 394 -3 338 -4 352 -24 379 -11 15 -36 38 -55 51 l-33 23 -2
127 c-2 188 -30 272 -125 376 -112 123 -279 177 -439 142z m176 -337 c51 -31
64 -71 64 -196 l0 -108 -140 -1 c-90 0 -140 4 -141 11 -1 5 -2 53 -3 105 -3
132 20 177 101 205 44 15 76 11 119 -16z"/>
<path d="M4723 3328 c-22 -29 -22 -48 1 -74 18 -22 28 -26 50 -20 61 15 50
106 -13 106 -16 0 -33 -6 -38 -12z"/>
<path d="M4660 2909 c0 -24 -39 -69 -68 -80 l-25 -10 33 -18 c18 -9 41 -32 51
-50 16 -31 18 -31 24 -11 9 27 39 59 67 69 19 7 18 9 -14 28 -19 11 -42 35
-51 54 -9 19 -17 27 -17 18z"/>
<path d="M622 2688 c-38 -47 8 -113 63 -92 27 11 38 53 20 80 -17 26 -65 33
-83 12z"/>
<path d="M370 2335 c0 -32 -47 -86 -100 -114 -30 -17 -47 -31 -37 -31 35 0
104 -58 127 -106 l23 -46 17 39 c23 50 54 81 103 103 l40 18 -46 20 c-45 20
-107 89 -107 119 0 7 -4 13 -10 13 -5 0 -10 -7 -10 -15z"/>
</g>
</svg>
